<svg width="22" height="36" viewBox="0 0 22 36" fill="none" xmlns="http://www.w3.org/2000/svg">
<path fill-rule="evenodd" clip-rule="evenodd" d="M0.0772144 1.42814C0.205915 2.60466 0.51615 3.30318 1.18268 3.91745C2.07931 4.7438 2.97772 4.95074 6.10995 5.05227C7.28685 5.09041 8.38983 5.15137 8.56101 5.18769C9.30785 5.34632 9.58113 5.46999 9.9249 5.80499C10.2992 6.16987 10.4199 6.45566 10.5098 7.19095L10.5631 7.62695H11.3323H12.1014L12.1001 7.26678C12.0982 6.74684 11.9102 5.95847 11.6864 5.53179C11.2558 4.71074 10.6072 4.19255 9.62353 3.88378C8.78955 3.62195 8.06115 3.54506 5.91558 3.49252C3.81287 3.44095 3.06028 3.33556 2.53466 3.0189C2.07674 2.74305 1.76121 2.24343 1.70674 1.70824C1.62364 0.891745 1.69795 0.954226 0.809655 0.954226H0.0253906L0.0772144 1.42814ZM7.74399 7.80825C4.25624 8.99744 1.67757 11.9015 1.00372 15.3992C0.869415 16.0965 0.857665 16.5962 0.857665 21.6169C0.857665 26.5466 0.871203 27.1463 0.997102 27.7968C1.8391 32.1466 5.35416 35.3605 9.87416 35.9132C10.9168 36.0407 12.7605 35.967 13.7744 35.7573C17.7119 34.9427 20.844 31.8239 21.6464 27.9188C21.7533 27.3982 21.7778 26.5071 21.806 22.1098C21.846 15.8473 21.814 15.4305 21.1596 13.711C20.2642 11.3577 18.3095 9.29703 15.9601 8.2297C15.2876 7.92412 14.3546 7.60489 14.2974 7.66077C14.2782 7.67935 14.3104 7.87559 14.3686 8.09677C14.4517 8.41153 14.4745 9.36429 14.4737 12.4798L14.4727 16.4607L14.2586 17.0793C14.0168 17.7778 13.5509 18.5077 13.1265 18.8526C12.9693 18.9804 12.6407 19.177 12.3963 19.2894L11.952 19.4938L11.9294 22.3163C11.9071 25.1068 11.905 25.1407 11.7362 25.3051C11.5265 25.5093 11.15 25.5226 10.9353 25.3333C10.7836 25.1996 10.7786 25.1049 10.7786 22.3673V19.5394L10.2856 19.3101C9.35804 18.8788 8.67734 18.0375 8.36874 16.9412C8.21063 16.3798 8.20666 16.2372 8.23545 12.2411C8.25179 9.97439 8.29194 8.00897 8.3247 7.87339C8.39434 7.58464 8.39854 7.5851 7.74399 7.80825ZM11.0137 9.37976C10.345 9.63977 9.86662 10.6574 9.79106 11.9803C9.71123 13.3798 9.99446 14.4372 10.618 15.0676C10.9457 15.3989 11.0185 15.4371 11.3233 15.4371C11.6281 15.4371 11.7009 15.3989 12.0286 15.0676C12.6527 14.4366 12.9311 13.4171 12.8581 12.0305C12.7904 10.7462 12.4 9.81985 11.7684 9.44459C11.4938 9.28141 11.3077 9.26541 11.0137 9.37976Z" fill="#756532"/>
</svg>
